<svg xmlns="http://www.w3.org/2000/svg" xmlns:xlink="http://www.w3.org/1999/xlink" version="1.1" viewBox="3 3 58 58" xml:space="preserve">
 <defs>
 <style>
.cls-1{fill:#ffc048;}.cls-2{fill:#fff;}
 </style>
 </defs>
 <g id="Layer_20" data-name="Layer 20">
 <circle class="cls-1" cx="32" cy="32" r="28.6"/>
 <path class="cls-2" d="M52.6,23.68a2.5,2.5,0,0,0-1.51-2.12,2.47,2.47,0,0,0-.92-.21,2.49,2.49,0,0,0-2.56,2.45l-.52,7.27a2,2,0,0,0-.29-.17,2.39,2.39,0,0,0-3.15,1.25l-1.56,3.6a1.31,1.31,0,0,1-.35.46l-3.33,2.66a2.5,2.5,0,0,0-.7.91L35.8,44.19l-1.06-.46A.61.61,0,0,0,34,44L32.8,46.69a.61.61,0,0,0,0,.46.55.55,0,0,0,.32.33l10.94,4.74a.52.52,0,0,0,.24.05.6.6,0,0,0,.55-.36L46,49.26a.58.58,0,0,0,0-.45.55.55,0,0,0-.32-.33l-.43-.19.5-1.16a6.48,6.48,0,0,1,1.91-2.49l3.13-3.7A4.73,4.73,0,0,0,52.53,37ZM44,50.88l-9.85-4.26.67-1.55,9.85,4.27ZM51.33,37c.07,1.16-1.39,3.06-1.42,3.09l-3,3.62a7.61,7.61,0,0,0-2.22,2.92l-.5,1.15L36.9,44.67l1.92-4.41a1.18,1.18,0,0,1,.34-.46l3.33-2.66a2.4,2.4,0,0,0,.7-.91l1.56-3.61a1.2,1.2,0,0,1,.66-.63A1.19,1.19,0,0,1,47,33.58l-2.41,5.55a.6.6,0,1,0,1.1.48l2.41-5.56c.21-.48.76-10.21.76-10.21a1.32,1.32,0,0,1,.38-.92,1.29,1.29,0,0,1,1.43-.26,1.29,1.29,0,0,1,.78,1.06Z"/>
 <path class="cls-2" d="M30.05,44a.61.61,0,0,0-.79-.31l-1.06.46-1.92-4.41a2.37,2.37,0,0,0-.69-.91l-3.33-2.66a1.31,1.31,0,0,1-.35-.46l-1.56-3.6A2.39,2.39,0,0,0,17.2,30.9a2,2,0,0,0-.29.17l-.52-7.22a2.48,2.48,0,0,0-3.48-2.29,2.51,2.51,0,0,0-1.51,2.16L11.47,37a4.77,4.77,0,0,0,1.74,4l3.13,3.7a6.48,6.48,0,0,1,1.91,2.49l.5,1.16-.43.19a.55.55,0,0,0-.32.33.59.59,0,0,0,0,.45l1.15,2.65a.6.6,0,0,0,.55.36.52.52,0,0,0,.24-.05l10.94-4.74a.55.55,0,0,0,.32-.33.61.61,0,0,0,0-.46Zm-10.7,2.62a7.61,7.61,0,0,0-2.22-2.92l-3-3.62S12.6,38.19,12.67,37L12.6,23.76a1.33,1.33,0,0,1,1.26-1.21,1.38,1.38,0,0,1,1,.37,1.35,1.35,0,0,1,.38,1s.55,9.68.76,10.16l2.41,5.56a.6.6,0,0,0,1.1-.48l-2.41-5.55A1.19,1.19,0,0,1,18.59,32a1.2,1.2,0,0,1,.66.63l1.56,3.61a2.4,2.4,0,0,0,.7.91l3.32,2.66a1.11,1.11,0,0,1,.35.46l1.92,4.41-7.25,3.14ZM20,50.88l-.67-1.54,9.85-4.27.67,1.55Z"/>
 <path class="cls-2" d="M35.74,32a.59.59,0,0,0,.38.14.61.61,0,0,0,.46-.22.59.59,0,0,0-.08-.84l-.22-.18h2.87a3.55,3.55,0,0,0,1.73-.46l0,0a6.46,6.46,0,0,0,1.29-1.29,3.55,3.55,0,0,0,0-3.54L39.94,21.7a.6.6,0,0,0-.82-.22L36.58,23a.59.59,0,0,0-.28.36.61.61,0,0,0,.06.46l1.75,3H36.28l.22-.18a.6.6,0,0,0-.76-.92l-3.29,2.71a.59.59,0,0,0,0,.92Zm2-8.35,1.5-.87,2,3.41a2.38,2.38,0,0,1,0,2.34,2.19,2.19,0,0,1-.37.48ZM34.82,28h4l1,1.65c-.2.06-4.94.08-4.94.08l-1-.86Z"/>
 <path class="cls-2" d="M21.79,29.42a3.53,3.53,0,0,0,3.06,1.77h4.5a.54.54,0,0,0,.35-.09.58.58,0,0,0,.29-.51V27.65a.61.61,0,0,0-.46-.58l-3.65,0,.92-1.58,0,.28a.6.6,0,0,0,1.19-.2l-.7-4.21a.63.63,0,0,0-.29-.42.61.61,0,0,0-.51,0l-4,1.5A.6.6,0,0,0,23,23.5l.27-.1-1.43,2.48a6.68,6.68,0,0,0-.48,1.81A3.61,3.61,0,0,0,21.79,29.42Zm6.09-1.17h.91V30H24.85a2.31,2.31,0,0,1-2-1.16,2,2,0,0,1-.24-.57ZM25,22.74l1.27-.48.23,1.35-2,3.44H22.59C22.64,26.85,25,22.74,25,22.74Z"/>
<path class="cls-2" d="M36,20.56a.52.52,0,0,0,.21,0,.61.61,0,0,0,.3-.08.55.55,0,0,0,.29-.42l.7-4.21A.6.6,0,0,0,37,15.2a.61.61,0,0,0-.69.5l0,.28-1.43-2.49a3.57,3.57,0,0,0-1.26-1.27,6.49,6.49,0,0,0-1.8-.49,3.54,3.54,0,0,0-3.06,1.76L26.47,17.4a.57.57,0,0,0-.1.31.6.6,0,0,0,.3.54l2.54,1.46a.61.61,0,0,0,.46.06.59.59,0,0,0,.36-.28l1.75-3L32.7,18l-.27-.1a.6.6,0,0,0-.77.35.61.61,0,0,0,.35.78Zm-6.71-2.19-1.5-.86,2-3.42A2.38,2.38,0,0,1,32.39,13Zm3.18-3.11,1-1.65c.14.14,2.53,4.23,2.53,4.23l-.22,1.34-1.28-.47Z"/>
</g>
</svg>