<svg xmlns="http://www.w3.org/2000/svg" xmlns:xlink="http://www.w3.org/1999/xlink" version="1.1" viewBox="3 3 58 58" xml:space="preserve">
<defs>
<style>
.cls-1{fill:#ff6b6b;}.cls-2{fill:#fff;}

</style>
</defs>
<g id="Layer_7" data-name="Layer 7">
<circle class="cls-1" cx="32" cy="32" r="28.6"/>
<path class="cls-2" d="M52.38,38.77a3.1,3.1,0,0,0-1.69-1.7,3,3,0,0,0-2.35,0l-9.29,3.27a3.38,3.38,0,0,0,.09-.72,3,3,0,0,0-2.94-3H31.06a1.77,1.77,0,0,1-.82-.2l-4.93-2.61a3,3,0,0,0-1.37-.34H17.46V30.88a.6.6,0,0,0-.6-.6H12a.6.6,0,0,0-.6.6V48.39a.6.6,0,0,0,.6.6h4.86a.6.6,0,0,0,.6-.6V46.63h1.83a8.67,8.67,0,0,1,4.08,1l.11,0,5.95,1.77a6,6,0,0,0,2.79.69,5.82,5.82,0,0,0,2.7-.66l16-6.84A3.08,3.08,0,0,0,52.38,38.77Zm-36.12,9H12.6V31.48h3.66Zm34.16-6.21-16,6.84a4.81,4.81,0,0,1-4.47,0s-6.06-1.82-6.06-1.82a9.9,9.9,0,0,0-4.59-1.14H17.46V34.73h6.48a1.76,1.76,0,0,1,.81.2l4.93,2.61a3,3,0,0,0,1.38.34H36.2A1.75,1.75,0,0,1,37.34,41l-1.24.44H28.27a.6.6,0,0,0-.6.6.6.6,0,0,0,.6.6H36.2c.65,0,12.58-4.39,12.58-4.39a1.86,1.86,0,0,1,2.48,1A1.86,1.86,0,0,1,50.42,41.58Z"/>
<path class="cls-2" d="M44.8,24.78l2,3.5H44.45l.39-.32h0a.6.6,0,0,0-.76-.92l-3.69,3a.6.6,0,0,0,0,.93l3.69,3a.59.59,0,0,0,.38.14.61.61,0,0,0,.46-.22.59.59,0,0,0-.08-.84l-.4-.33h3.41a3.82,3.82,0,0,0,1.91-.51h0l0,0a3.91,3.91,0,0,0,1.39-1.41,3.85,3.85,0,0,0,0-3.88l-2.54-4.41a.67.67,0,0,0-.36-.28.66.66,0,0,0-.46.06L45,24A.59.59,0,0,0,44.8,24.78ZM43,31.57l-1.26-1.05,1.26-1h4.52l1.14,2C48.4,31.53,43,31.57,43,31.57Zm4.95-7.91,2.25,3.88a2.74,2.74,0,0,1,0,2.69,3,3,0,0,1-.5.62L46.14,24.7Z"/>
<path class="cls-2" d="M28.48,31.1a3.89,3.89,0,0,0,3.36,1.95h5.07a.61.61,0,0,0,.39-.13.58.58,0,0,0,.23-.47V29.16a.61.61,0,0,0-.46-.58l-.14,0h-4l1.19-2,.08.5h0a.59.59,0,0,0,.69.49.6.6,0,0,0,.5-.69l-.79-4.71a.59.59,0,0,0-.8-.46l-4.47,1.67a.61.61,0,0,0-.35.78.6.6,0,0,0,.77.35l.48-.18-1.7,2.95A3.94,3.94,0,0,0,28,29.13v.07A3.87,3.87,0,0,0,28.48,31.1Zm7.85-1.34v2.09H31.84a2.7,2.7,0,0,1-2.32-1.35,2.48,2.48,0,0,1-.29-.74ZM32,23.6,33.49,23l.27,1.61L31.5,28.56H29.23C29.29,28.3,32,23.6,32,23.6Z"/>
<path class="cls-2" d="M33.92,18.57l2.85,1.64a.61.61,0,0,0,.82-.22l2-3.51,1.19,2.06-.49-.18a.6.6,0,0,0-.42,1.12l4.47,1.68a.76.76,0,0,0,.21,0,.52.52,0,0,0,.3-.08.58.58,0,0,0,.29-.42L46,16a.6.6,0,1,0-1.19-.19l-.08.51-1.7-3a7.35,7.35,0,0,0-1.46-1.44,3.94,3.94,0,0,0-1.91-.5,3.88,3.88,0,0,0-3.36,1.94l-2.53,4.38a.58.58,0,0,0-.1.36A.6.6,0,0,0,33.92,18.57Zm10.45-.41-.27,1.62-1.54-.58L40.3,15.28l1.14-2C41.63,13.5,44.37,18.16,44.37,18.16Zm-7.09-4.22a2.77,2.77,0,0,1,3.12-1.22l-3.55,6.15-1.81-1Z"/>
</g>
</svg>
